<svg width="408" height="408" viewBox="0 0 408 408" fill="none" xmlns="http://www.w3.org/2000/svg">
<g filter="url(#filter0_d_213_2)">
<g clip-path="url(#clip0_213_2)">
<rect x="4" width="400" height="400" fill="url(#paint0_linear_213_2)"/>
<path d="M147.157 301.12C134.869 301.12 124.245 298.944 115.285 294.592C106.453 290.24 99.6687 283.392 94.9327 274.048C90.1967 264.832 87.8287 252.864 87.8287 238.144V175.936C87.8287 161.088 90.1967 149.056 94.9327 139.84C99.6687 130.624 106.453 123.84 115.285 119.488C124.245 115.136 134.869 112.96 147.157 112.96V126.208C131.925 126.336 120.661 130.56 113.365 138.88C106.069 147.072 102.421 159.744 102.421 176.896V237.184C102.421 254.208 106.069 266.88 113.365 275.2C120.661 283.52 131.925 287.744 147.157 287.872V301.12ZM202.051 257.92C192.835 257.92 184.707 256 177.667 252.16C170.755 248.192 165.379 242.432 161.539 234.88C157.699 227.2 155.779 217.856 155.779 206.848C155.779 193.92 158.019 183.552 162.499 175.744C166.979 167.808 173.315 162.048 181.507 158.464C189.699 154.88 199.363 153.088 210.499 153.088H256.963V166.144H233.539C236.867 169.216 239.619 172.736 241.795 176.704C244.099 180.672 245.827 185.152 246.979 190.144C248.259 195.136 248.899 200.704 248.899 206.848C248.899 213.76 247.875 220.352 245.827 226.624C243.907 232.768 240.963 238.208 236.995 242.944C233.155 247.552 228.291 251.2 222.403 253.888C216.515 256.576 209.731 257.92 202.051 257.92ZM202.435 243.904C209.347 243.904 214.979 242.24 219.331 238.912C223.683 235.584 226.883 231.168 228.931 225.664C230.979 220.032 232.003 213.888 232.003 207.232C232.003 201.728 231.427 196.544 230.275 191.68C229.251 186.816 227.651 182.272 225.475 178.048C223.299 173.824 220.547 169.856 217.219 166.144H210.499C202.179 166.144 195.203 167.552 189.571 170.368C183.939 173.056 179.715 177.408 176.899 183.424C174.211 189.312 172.867 197.12 172.867 206.848C172.867 214.016 173.891 220.416 175.939 226.048C177.987 231.68 181.187 236.096 185.539 239.296C189.891 242.368 195.523 243.904 202.435 243.904ZM260.66 301.12V287.872C276.148 287.744 287.476 283.52 294.644 275.2C301.812 266.88 305.396 254.208 305.396 237.184V176.896C305.396 159.744 301.812 147.072 294.644 138.88C287.476 130.56 276.148 126.336 260.66 126.208V112.96C273.076 112.96 283.7 115.136 292.532 119.488C301.364 123.84 308.148 130.624 312.884 139.84C317.748 149.056 320.18 161.088 320.18 175.936V238.144C320.18 252.864 317.748 264.832 312.884 274.048C308.148 283.392 301.364 290.24 292.532 294.592C283.7 298.944 273.076 301.12 260.66 301.12Z" fill="#10B981"/>
</g>
<rect x="4.5" y="0.5" width="399" height="399" stroke="black"/>
</g>
<defs>
<filter id="filter0_d_213_2" x="0" y="0" width="408" height="408" filterUnits="userSpaceOnUse" color-interpolation-filters="sRGB">
<feFlood flood-opacity="0" result="BackgroundImageFix"/>
<feColorMatrix in="SourceAlpha" type="matrix" values="0 0 0 0 0 0 0 0 0 0 0 0 0 0 0 0 0 0 127 0" result="hardAlpha"/>
<feOffset dy="4"/>
<feGaussianBlur stdDeviation="2"/>
<feComposite in2="hardAlpha" operator="out"/>
<feColorMatrix type="matrix" values="0 0 0 0 0 0 0 0 0 0 0 0 0 0 0 0 0 0 0.25 0"/>
<feBlend mode="normal" in2="BackgroundImageFix" result="effect1_dropShadow_213_2"/>
<feBlend mode="normal" in="SourceGraphic" in2="effect1_dropShadow_213_2" result="shape"/>
</filter>
<linearGradient id="paint0_linear_213_2" x1="204" y1="0" x2="204" y2="400" gradientUnits="userSpaceOnUse">
<stop/>
<stop offset="1" stop-color="#222222"/>
</linearGradient>
<clipPath id="clip0_213_2">
<rect x="4" width="400" height="400" fill="white"/>
</clipPath>
</defs>
</svg>
